<mxfile host="app.diagrams.net" modified="2024-05-07T14:01:06.735Z" agent="Mozilla/5.0 (X11; Ubuntu; Linux x86_64; rv:125.0) Gecko/20100101 Firefox/125.0" etag="90x7QkYijmesAsamVn3v" version="24.3.1" type="device">
  <diagram id="C5RBs43oDa-KdzZeNtuy" name="Page-1">
    <mxGraphModel dx="1647" dy="956" grid="1" gridSize="10" guides="1" tooltips="1" connect="1" arrows="1" fold="1" page="1" pageScale="1" pageWidth="827" pageHeight="1169" math="0" shadow="0">
      <root>
        <mxCell id="WIyWlLk6GJQsqaUBKTNV-0" />
        <mxCell id="WIyWlLk6GJQsqaUBKTNV-1" parent="WIyWlLk6GJQsqaUBKTNV-0" />
        <mxCell id="ErsK3g_2t3JGkIOVcBb0-27" style="edgeStyle=orthogonalEdgeStyle;rounded=0;orthogonalLoop=1;jettySize=auto;html=1;exitX=1;exitY=0.5;exitDx=0;exitDy=0;entryX=0;entryY=0.563;entryDx=0;entryDy=0;entryPerimeter=0;" parent="WIyWlLk6GJQsqaUBKTNV-1" source="ErsK3g_2t3JGkIOVcBb0-22" target="ErsK3g_2t3JGkIOVcBb0-6" edge="1">
          <mxGeometry relative="1" as="geometry" />
        </mxCell>
        <mxCell id="ErsK3g_2t3JGkIOVcBb0-22" value="ORCID" style="rounded=0;whiteSpace=wrap;html=1;" parent="WIyWlLk6GJQsqaUBKTNV-1" vertex="1">
          <mxGeometry x="30" y="140" width="260" height="190" as="geometry" />
        </mxCell>
        <mxCell id="WIyWlLk6GJQsqaUBKTNV-3" value="Dependency mgt" style="rounded=1;whiteSpace=wrap;html=1;fontSize=12;glass=0;strokeWidth=1;shadow=0;" parent="WIyWlLk6GJQsqaUBKTNV-1" vertex="1">
          <mxGeometry x="40" y="230" width="80" height="40" as="geometry" />
        </mxCell>
        <mxCell id="ErsK3g_2t3JGkIOVcBb0-0" value="Open license" style="rounded=1;whiteSpace=wrap;html=1;fontSize=12;glass=0;strokeWidth=1;shadow=0;" parent="WIyWlLk6GJQsqaUBKTNV-1" vertex="1">
          <mxGeometry x="40" y="190" width="80" height="40" as="geometry" />
        </mxCell>
        <mxCell id="ErsK3g_2t3JGkIOVcBb0-1" value="&lt;div&gt;Python&amp;nbsp;&lt;/div&gt;&lt;div&gt;Model&lt;/div&gt;" style="rounded=1;whiteSpace=wrap;html=1;fontSize=12;glass=0;strokeWidth=1;shadow=0;" parent="WIyWlLk6GJQsqaUBKTNV-1" vertex="1">
          <mxGeometry x="120" y="190" width="80" height="80" as="geometry" />
        </mxCell>
        <mxCell id="ErsK3g_2t3JGkIOVcBb0-2" value="**Model interface" style="rounded=1;whiteSpace=wrap;html=1;fontSize=12;glass=0;strokeWidth=1;shadow=0;" parent="WIyWlLk6GJQsqaUBKTNV-1" vertex="1">
          <mxGeometry x="200" y="190" width="80" height="40" as="geometry" />
        </mxCell>
        <mxCell id="ErsK3g_2t3JGkIOVcBb0-3" value="Minimum documentation" style="rounded=1;whiteSpace=wrap;html=1;fontSize=12;glass=0;strokeWidth=1;shadow=0;" parent="WIyWlLk6GJQsqaUBKTNV-1" vertex="1">
          <mxGeometry x="200" y="230" width="80" height="40" as="geometry" />
        </mxCell>
        <mxCell id="ErsK3g_2t3JGkIOVcBb0-4" value="Research artifact meta data" style="rounded=1;whiteSpace=wrap;html=1;fontSize=12;glass=0;strokeWidth=1;shadow=0;" parent="WIyWlLk6GJQsqaUBKTNV-1" vertex="1">
          <mxGeometry x="40" y="270" width="240" height="20" as="geometry" />
        </mxCell>
        <mxCell id="ErsK3g_2t3JGkIOVcBb0-28" style="edgeStyle=orthogonalEdgeStyle;rounded=0;orthogonalLoop=1;jettySize=auto;html=1;exitX=1;exitY=0;exitDx=0;exitDy=27.5;exitPerimeter=0;entryX=0;entryY=0.5;entryDx=0;entryDy=0;" parent="WIyWlLk6GJQsqaUBKTNV-1" source="ErsK3g_2t3JGkIOVcBb0-6" target="ErsK3g_2t3JGkIOVcBb0-16" edge="1">
          <mxGeometry relative="1" as="geometry" />
        </mxCell>
        <mxCell id="ErsK3g_2t3JGkIOVcBb0-29" style="edgeStyle=orthogonalEdgeStyle;rounded=0;orthogonalLoop=1;jettySize=auto;html=1;exitX=1;exitY=0.5;exitDx=0;exitDy=0;exitPerimeter=0;entryX=0;entryY=0.5;entryDx=0;entryDy=0;" parent="WIyWlLk6GJQsqaUBKTNV-1" source="ErsK3g_2t3JGkIOVcBb0-6" target="ErsK3g_2t3JGkIOVcBb0-17" edge="1">
          <mxGeometry relative="1" as="geometry" />
        </mxCell>
        <mxCell id="ErsK3g_2t3JGkIOVcBb0-30" style="edgeStyle=orthogonalEdgeStyle;rounded=0;orthogonalLoop=1;jettySize=auto;html=1;exitX=1;exitY=0;exitDx=0;exitDy=52.5;exitPerimeter=0;entryX=0;entryY=0.5;entryDx=0;entryDy=0;" parent="WIyWlLk6GJQsqaUBKTNV-1" source="ErsK3g_2t3JGkIOVcBb0-6" target="ErsK3g_2t3JGkIOVcBb0-18" edge="1">
          <mxGeometry relative="1" as="geometry" />
        </mxCell>
        <mxCell id="ErsK3g_2t3JGkIOVcBb0-31" style="edgeStyle=orthogonalEdgeStyle;rounded=0;orthogonalLoop=1;jettySize=auto;html=1;exitX=0.5;exitY=1;exitDx=0;exitDy=0;exitPerimeter=0;entryX=0.5;entryY=0;entryDx=0;entryDy=0;entryPerimeter=0;" parent="WIyWlLk6GJQsqaUBKTNV-1" source="ErsK3g_2t3JGkIOVcBb0-6" target="ErsK3g_2t3JGkIOVcBb0-15" edge="1">
          <mxGeometry relative="1" as="geometry" />
        </mxCell>
        <mxCell id="ErsK3g_2t3JGkIOVcBb0-6" value="Remote code repository" style="shape=cylinder3;whiteSpace=wrap;html=1;boundedLbl=1;backgroundOutline=1;size=15;" parent="WIyWlLk6GJQsqaUBKTNV-1" vertex="1">
          <mxGeometry x="350" y="190" width="120" height="80" as="geometry" />
        </mxCell>
        <mxCell id="ErsK3g_2t3JGkIOVcBb0-15" value="&lt;div&gt;Open science&amp;nbsp;&lt;/div&gt;&lt;div&gt;archive&lt;/div&gt;" style="shape=cylinder3;whiteSpace=wrap;html=1;boundedLbl=1;backgroundOutline=1;size=15;" parent="WIyWlLk6GJQsqaUBKTNV-1" vertex="1">
          <mxGeometry x="350" y="370" width="120" height="80" as="geometry" />
        </mxCell>
        <mxCell id="ErsK3g_2t3JGkIOVcBb0-16" value="**Hosted web app" style="rounded=0;whiteSpace=wrap;html=1;" parent="WIyWlLk6GJQsqaUBKTNV-1" vertex="1">
          <mxGeometry x="550" y="100" width="120" height="60" as="geometry" />
        </mxCell>
        <mxCell id="ErsK3g_2t3JGkIOVcBb0-35" style="edgeStyle=orthogonalEdgeStyle;rounded=0;orthogonalLoop=1;jettySize=auto;html=1;exitX=0.5;exitY=1;exitDx=0;exitDy=0;entryX=0.5;entryY=0;entryDx=0;entryDy=0;" parent="WIyWlLk6GJQsqaUBKTNV-1" source="ErsK3g_2t3JGkIOVcBb0-17" target="ErsK3g_2t3JGkIOVcBb0-18" edge="1">
          <mxGeometry relative="1" as="geometry" />
        </mxCell>
        <mxCell id="ErsK3g_2t3JGkIOVcBb0-17" value="**Hosted documentation" style="rounded=0;whiteSpace=wrap;html=1;" parent="WIyWlLk6GJQsqaUBKTNV-1" vertex="1">
          <mxGeometry x="550" y="200" width="120" height="60" as="geometry" />
        </mxCell>
        <mxCell id="ErsK3g_2t3JGkIOVcBb0-18" value="**Online coding environment" style="rounded=0;whiteSpace=wrap;html=1;" parent="WIyWlLk6GJQsqaUBKTNV-1" vertex="1">
          <mxGeometry x="550" y="300" width="120" height="60" as="geometry" />
        </mxCell>
        <mxCell id="ErsK3g_2t3JGkIOVcBb0-23" value="Code and meta data" style="text;strokeColor=none;align=center;fillColor=none;html=1;verticalAlign=middle;whiteSpace=wrap;rounded=0;" parent="WIyWlLk6GJQsqaUBKTNV-1" vertex="1">
          <mxGeometry x="60" y="150" width="200" height="30" as="geometry" />
        </mxCell>
        <mxCell id="ErsK3g_2t3JGkIOVcBb0-26" value="**Enhanced documentation" style="rounded=1;whiteSpace=wrap;html=1;fontSize=12;glass=0;strokeWidth=1;shadow=0;" parent="WIyWlLk6GJQsqaUBKTNV-1" vertex="1">
          <mxGeometry x="40" y="290" width="240" height="20" as="geometry" />
        </mxCell>
        <mxCell id="ErsK3g_2t3JGkIOVcBb0-33" value="Deposit &amp;amp; mint DOI" style="text;strokeColor=none;align=center;fillColor=none;html=1;verticalAlign=middle;whiteSpace=wrap;rounded=0;" parent="WIyWlLk6GJQsqaUBKTNV-1" vertex="1">
          <mxGeometry x="320" y="315" width="94" height="30" as="geometry" />
        </mxCell>
        <mxCell id="ErsK3g_2t3JGkIOVcBb0-36" value="" style="endArrow=classic;startArrow=classic;html=1;rounded=0;exitX=0.5;exitY=0;exitDx=0;exitDy=0;entryX=0.5;entryY=1;entryDx=0;entryDy=0;" parent="WIyWlLk6GJQsqaUBKTNV-1" source="ErsK3g_2t3JGkIOVcBb0-17" target="ErsK3g_2t3JGkIOVcBb0-16" edge="1">
          <mxGeometry width="50" height="50" relative="1" as="geometry">
            <mxPoint x="360" y="300" as="sourcePoint" />
            <mxPoint x="410" y="250" as="targetPoint" />
          </mxGeometry>
        </mxCell>
        <mxCell id="ErsK3g_2t3JGkIOVcBb0-37" value="Deploy on code change" style="text;strokeColor=none;align=center;fillColor=none;html=1;verticalAlign=middle;whiteSpace=wrap;rounded=0;" parent="WIyWlLk6GJQsqaUBKTNV-1" vertex="1">
          <mxGeometry x="410" y="100" width="134" height="30" as="geometry" />
        </mxCell>
        <mxCell id="ErsK3g_2t3JGkIOVcBb0-38" value="Deploy on demand" style="text;strokeColor=none;align=center;fillColor=none;html=1;verticalAlign=middle;whiteSpace=wrap;rounded=0;" parent="WIyWlLk6GJQsqaUBKTNV-1" vertex="1">
          <mxGeometry x="440" y="330" width="104" height="30" as="geometry" />
        </mxCell>
        <mxCell id="ErsK3g_2t3JGkIOVcBb0-43" value="Push" style="text;strokeColor=none;align=center;fillColor=none;html=1;verticalAlign=middle;whiteSpace=wrap;rounded=0;" parent="WIyWlLk6GJQsqaUBKTNV-1" vertex="1">
          <mxGeometry x="303" y="210" width="47" height="30" as="geometry" />
        </mxCell>
      </root>
    </mxGraphModel>
  </diagram>
</mxfile>
